<?xml version="1.0" encoding="utf-8"?>
<!-- Generator: Adobe Illustrator 25.0.1, SVG Export Plug-In . SVG Version: 6.00 Build 0)  -->
<svg version="1.1" id="Layer_1" xmlns="http://www.w3.org/2000/svg" xmlns:xlink="http://www.w3.org/1999/xlink" x="0px" y="0px"
	 viewBox="0 0 1920 1080" style="enable-background:new 0 0 1920 1080;" xml:space="preserve">
<path d="M1016.11,766.87c-25.16,0-49.75,0-74.62,0c0-131.24,0-262.35,0-393.77c-13.45,0-26.62,0-40.67,0
	c25.83-28.51,51.11-56.42,76.52-84.46c25.44,28.08,50.7,55.96,76.34,84.26c-12.78,0-24.99,0-37.56,0
	C1016.11,504.3,1016.11,635.47,1016.11,766.87z"/>
<path d="M977.25,899.5c-204.98,0-371.75-166.77-371.75-371.75S772.27,156,977.25,156S1349,322.77,1349,527.75
	S1182.23,899.5,977.25,899.5z M977.25,222.13c-168.52,0-305.62,137.1-305.62,305.62s137.1,305.62,305.62,305.62
	s305.62-137.1,305.62-305.62S1145.77,222.13,977.25,222.13z"/>
</svg>
