<svg id="Capa_1" enable-background="new 0 0 510.935 510.935" height="512" viewBox="0 0 510.935 510.935" width="512" xmlns="http://www.w3.org/2000/svg"><g id="XMLID_448_"><path id="XMLID_468_" d="m94.095.348v361.568c0 8.021-6.525 14.547-14.547 14.547s-14.547-6.525-14.547-14.547v-16.699h-30v16.699c0 24.563 19.983 44.547 44.547 44.547s44.547-19.983 44.547-44.547v-298.157l62.653 91.582-18.088 122.843 33.562 77.195-47.448 155.556h321.159v-510.935zm204.031 176.018-42.699-69 25.51-15.787 42.699 69zm13.073 94.851v28h-30v-28zm-28.017 151v28h-30v-28zm124.699-215.744v28h-30v-28zm-30-110.256v-28h30v28zm7.595 244.278 25.51 15.787-42.699 69-25.51-15.787z"/></g></svg>